<?xml version="1.0" encoding="utf-8"?>
<!-- Generator: Adobe Illustrator 19.0.0, SVG Export Plug-In . SVG Version: 6.00 Build 0)  -->
<svg version="1.1" id="Layer_1" xmlns="http://www.w3.org/2000/svg" xmlns:xlink="http://www.w3.org/1999/xlink" x="0px" y="0px"
	 viewBox="481.3 31.9 221.7 246" style="enable-background:new 481.3 31.9 221.7 246;" xml:space="preserve">
<style type="text/css">
	.st0{fill:#0FF07E;}
	.st1{fill:#10CFFF;}
	.st2{fill:#FFCA0A;}
	.st3{fill:#FA3E4D;}
</style>
<path class="st0" d="M486.5,35.4c4.8-4.4,11.8-4.4,17.3-1.3c47.5,26.4,94.7,53.5,142,80.3c-13.2,13.4-26.7,26.6-39.9,40l-0.6,0.5
	C566.4,114.5,525.9,75.5,486.5,35.4L486.5,35.4z"/>
<path class="st1" d="M481.4,64.6c0.1-9.8-1.4-21,5.1-29.3c39.4,40.1,79.9,79.1,118.8,119.6c-39.8,39.8-79.7,79.6-119.4,119.5
	c-3.8-6.1-4.4-13.4-4.6-20.4C481.5,190.9,481.4,127.8,481.4,64.6L481.4,64.6z"/>
<path class="st2" d="M645.8,114.4c16,8.9,31.8,18,47.7,27.1c5.6,3.1,10.8,9.1,9.3,15.9c-1.6,6.8-8.2,10.4-13.9,13.6
	c-14.4,7.7-28.3,16.4-42.7,24.2c-13.4-13.6-27.3-26.7-40.2-40.7C619.1,141,632.6,127.9,645.8,114.4L645.8,114.4z"/>
<path class="st3" d="M605.3,155l0.6-0.5c13,14,26.9,27.1,40.2,40.7c-46.6,26.8-93.4,53.2-140.3,79.7c-6,3.6-14.4,4.5-20-0.3
	C525.6,234.6,565.5,194.8,605.3,155L605.3,155z"/>
</svg>
